<svg width="326" height="503" viewBox="0 0 326 503" fill="none" xmlns="http://www.w3.org/2000/svg">
<foreignObject x="178.412" y="-13.9507" width="183.741" height="198.675"><div xmlns="http://www.w3.org/1999/xhtml" style="backdrop-filter:blur(8.96px);clip-path:url(#bgblur_0_8711_936_clip_path);height:100%;width:100%"></div></foreignObject><path data-figma-bg-blur-radius="17.9234" d="M257.443 7.41325C265.389 2.82592 275.178 2.82591 283.123 7.41325L331.39 35.2801C339.336 39.8675 344.23 48.3452 344.23 57.5199V113.254C344.23 122.428 339.336 130.906 331.39 135.493L283.123 163.36C275.178 167.948 265.389 167.948 257.443 163.36L209.176 135.493C201.231 130.906 196.336 122.428 196.336 113.254V57.5199C196.336 48.3452 201.231 39.8675 209.176 35.2801L257.443 7.41325Z" fill="#D2D2D2" fill-opacity="0.38"/>
<foreignObject x="84.6796" y="146.551" width="183.741" height="198.675"><div xmlns="http://www.w3.org/1999/xhtml" style="backdrop-filter:blur(8.96px);clip-path:url(#bgblur_1_8711_936_clip_path);height:100%;width:100%"></div></foreignObject><path data-figma-bg-blur-radius="17.9234" d="M163.71 167.915C171.656 163.328 181.445 163.327 189.39 167.915L237.657 195.782C245.603 200.369 250.497 208.847 250.497 218.021V273.755C250.497 282.93 245.603 291.408 237.657 295.995L189.39 323.862C181.445 328.449 171.656 328.449 163.71 323.862L115.443 295.995C107.498 291.408 102.603 282.93 102.603 273.755L102.603 218.021C102.603 208.847 107.498 200.369 115.443 195.782L163.71 167.915Z" fill="#D2D2D2" fill-opacity="0.38"/>
<foreignObject x="177.129" y="317.326" width="183.741" height="198.675"><div xmlns="http://www.w3.org/1999/xhtml" style="backdrop-filter:blur(8.96px);clip-path:url(#bgblur_2_8711_936_clip_path);height:100%;width:100%"></div></foreignObject><path data-figma-bg-blur-radius="17.9234" d="M256.159 338.689C264.105 334.102 273.894 334.102 281.84 338.689L330.107 366.556C338.052 371.144 342.947 379.621 342.947 388.796V444.53C342.947 453.705 338.052 462.182 330.107 466.77L281.84 494.637C273.894 499.224 264.105 499.224 256.159 494.637L207.893 466.77C199.947 462.182 195.052 453.705 195.052 444.53V388.796C195.052 379.621 199.947 371.144 207.893 366.556L256.159 338.689Z" fill="#D2D2D2" fill-opacity="0.38"/>
<foreignObject x="-6.48374" y="317.326" width="183.741" height="198.675"><div xmlns="http://www.w3.org/1999/xhtml" style="backdrop-filter:blur(8.96px);clip-path:url(#bgblur_3_8711_936_clip_path);height:100%;width:100%"></div></foreignObject><path data-figma-bg-blur-radius="17.9234" d="M72.5466 338.689C80.4921 334.102 90.2814 334.102 98.2269 338.689L146.494 366.556C154.439 371.144 159.334 379.621 159.334 388.796V444.53C159.334 453.705 154.439 462.182 146.494 466.77L98.2269 494.637C90.2814 499.224 80.4921 499.224 72.5466 494.637L24.2798 466.77C16.3343 462.182 11.4397 453.705 11.4397 444.53L11.4397 388.796C11.4397 379.621 16.3343 371.144 24.2798 366.556L72.5466 338.689Z" fill="#D2D2D2" fill-opacity="0.38"/>
<foreignObject x="268.296" y="146.551" width="183.741" height="198.675"><div xmlns="http://www.w3.org/1999/xhtml" style="backdrop-filter:blur(8.96px);clip-path:url(#bgblur_4_8711_936_clip_path);height:100%;width:100%"></div></foreignObject><path data-figma-bg-blur-radius="17.9234" d="M347.326 167.915C355.272 163.328 365.061 163.327 373.007 167.915L421.274 195.782C429.219 200.369 434.114 208.847 434.114 218.021V273.755C434.114 282.93 429.219 291.408 421.274 295.995L373.007 323.862C365.061 328.449 355.272 328.449 347.326 323.862L299.06 295.995C291.114 291.408 286.219 282.93 286.219 273.755V218.021C286.219 208.847 291.114 200.369 299.06 195.782L347.326 167.915Z" fill="#D2D2D2" fill-opacity="0.38"/>
<defs>
<clipPath id="bgblur_0_8711_936_clip_path" transform="translate(-178.412 13.9507)"><path d="M257.443 7.41325C265.389 2.82592 275.178 2.82591 283.123 7.41325L331.39 35.2801C339.336 39.8675 344.23 48.3452 344.23 57.5199V113.254C344.23 122.428 339.336 130.906 331.39 135.493L283.123 163.36C275.178 167.948 265.389 167.948 257.443 163.36L209.176 135.493C201.231 130.906 196.336 122.428 196.336 113.254V57.5199C196.336 48.3452 201.231 39.8675 209.176 35.2801L257.443 7.41325Z"/>
</clipPath><clipPath id="bgblur_1_8711_936_clip_path" transform="translate(-84.6796 -146.551)"><path d="M163.71 167.915C171.656 163.328 181.445 163.327 189.39 167.915L237.657 195.782C245.603 200.369 250.497 208.847 250.497 218.021V273.755C250.497 282.93 245.603 291.408 237.657 295.995L189.39 323.862C181.445 328.449 171.656 328.449 163.71 323.862L115.443 295.995C107.498 291.408 102.603 282.93 102.603 273.755L102.603 218.021C102.603 208.847 107.498 200.369 115.443 195.782L163.71 167.915Z"/>
</clipPath><clipPath id="bgblur_2_8711_936_clip_path" transform="translate(-177.129 -317.326)"><path d="M256.159 338.689C264.105 334.102 273.894 334.102 281.84 338.689L330.107 366.556C338.052 371.144 342.947 379.621 342.947 388.796V444.53C342.947 453.705 338.052 462.182 330.107 466.77L281.84 494.637C273.894 499.224 264.105 499.224 256.159 494.637L207.893 466.77C199.947 462.182 195.052 453.705 195.052 444.53V388.796C195.052 379.621 199.947 371.144 207.893 366.556L256.159 338.689Z"/>
</clipPath><clipPath id="bgblur_3_8711_936_clip_path" transform="translate(6.48374 -317.326)"><path d="M72.5466 338.689C80.4921 334.102 90.2814 334.102 98.2269 338.689L146.494 366.556C154.439 371.144 159.334 379.621 159.334 388.796V444.53C159.334 453.705 154.439 462.182 146.494 466.77L98.2269 494.637C90.2814 499.224 80.4921 499.224 72.5466 494.637L24.2798 466.77C16.3343 462.182 11.4397 453.705 11.4397 444.53L11.4397 388.796C11.4397 379.621 16.3343 371.144 24.2798 366.556L72.5466 338.689Z"/>
</clipPath><clipPath id="bgblur_4_8711_936_clip_path" transform="translate(-268.296 -146.551)"><path d="M347.326 167.915C355.272 163.328 365.061 163.327 373.007 167.915L421.274 195.782C429.219 200.369 434.114 208.847 434.114 218.021V273.755C434.114 282.93 429.219 291.408 421.274 295.995L373.007 323.862C365.061 328.449 355.272 328.449 347.326 323.862L299.06 295.995C291.114 291.408 286.219 282.93 286.219 273.755V218.021C286.219 208.847 291.114 200.369 299.06 195.782L347.326 167.915Z"/>
</clipPath></defs>
</svg>
