<svg width="269" height="503" viewBox="0 0 269 503" fill="none" xmlns="http://www.w3.org/2000/svg">
<foreignObject x="-93.1539" y="317.326" width="183.741" height="198.675"><div xmlns="http://www.w3.org/1999/xhtml" style="backdrop-filter:blur(8.96px);clip-path:url(#bgblur_0_8711_943_clip_path);height:100%;width:100%"></div></foreignObject><path data-figma-bg-blur-radius="17.9234" d="M11.5566 494.637C3.61114 499.224 -6.17812 499.224 -14.1236 494.637L-62.3905 466.77C-70.3359 462.182 -75.2306 453.705 -75.2306 444.53L-75.2306 388.796C-75.2306 379.621 -70.336 371.144 -62.3905 366.556L-14.1236 338.69C-6.17811 334.102 3.61114 334.102 11.5566 338.69L59.8235 366.556C67.769 371.144 72.6636 379.621 72.6636 388.796L72.6636 444.53C72.6636 453.705 67.769 462.182 59.8235 466.77L11.5566 494.637Z" fill="#D2D2D2" fill-opacity="0.38"/>
<foreignObject x="0.579247" y="156.824" width="183.741" height="198.675"><div xmlns="http://www.w3.org/1999/xhtml" style="backdrop-filter:blur(8.96px);clip-path:url(#bgblur_1_8711_943_clip_path);height:100%;width:100%"></div></foreignObject><path data-figma-bg-blur-radius="17.9234" d="M105.29 334.135C97.3443 338.722 87.555 338.722 79.6095 334.135L31.3427 306.268C23.3972 301.681 18.5026 293.203 18.5026 284.028L18.5026 228.295C18.5026 219.12 23.3972 210.642 31.3427 206.055L79.6096 178.188C87.555 173.601 97.3443 173.601 105.29 178.188L153.557 206.055C161.502 210.642 166.397 219.12 166.397 228.295L166.397 284.028C166.397 293.203 161.502 301.681 153.557 306.268L105.29 334.135Z" fill="#D2D2D2" fill-opacity="0.38"/>
<foreignObject x="-91.87" y="-13.9506" width="183.741" height="198.675"><div xmlns="http://www.w3.org/1999/xhtml" style="backdrop-filter:blur(8.96px);clip-path:url(#bgblur_2_8711_943_clip_path);height:100%;width:100%"></div></foreignObject><path data-figma-bg-blur-radius="17.9234" d="M12.8406 163.36C4.89507 167.948 -4.89418 167.948 -12.8397 163.36L-61.1065 135.494C-69.052 130.906 -73.9467 122.428 -73.9467 113.254L-73.9466 57.52C-73.9466 48.3453 -69.052 39.8676 -61.1065 35.2803L-12.8397 7.41338C-4.89417 2.82604 4.89508 2.82604 12.8406 7.41339L61.1074 35.2803C69.0529 39.8676 73.9476 48.3454 73.9476 57.52L73.9476 113.254C73.9476 122.428 69.0529 130.906 61.1074 135.494L12.8406 163.36Z" fill="#D2D2D2" fill-opacity="0.38"/>
<foreignObject x="91.7428" y="-13.9506" width="183.741" height="198.675"><div xmlns="http://www.w3.org/1999/xhtml" style="backdrop-filter:blur(8.96px);clip-path:url(#bgblur_3_8711_943_clip_path);height:100%;width:100%"></div></foreignObject><path data-figma-bg-blur-radius="17.9234" d="M196.453 163.36C188.508 167.948 178.719 167.948 170.773 163.36L122.506 135.494C114.561 130.906 109.666 122.428 109.666 113.254L109.666 57.52C109.666 48.3453 114.561 39.8676 122.506 35.2803L170.773 7.41338C178.719 2.82604 188.508 2.82604 196.453 7.41339L244.72 35.2803C252.666 39.8676 257.56 48.3454 257.56 57.52L257.56 113.254C257.56 122.428 252.666 130.906 244.72 135.494L196.453 163.36Z" fill="#D2D2D2" fill-opacity="0.38"/>
<defs>
<clipPath id="bgblur_0_8711_943_clip_path" transform="translate(93.1539 -317.326)"><path d="M11.5566 494.637C3.61114 499.224 -6.17812 499.224 -14.1236 494.637L-62.3905 466.77C-70.3359 462.182 -75.2306 453.705 -75.2306 444.53L-75.2306 388.796C-75.2306 379.621 -70.336 371.144 -62.3905 366.556L-14.1236 338.69C-6.17811 334.102 3.61114 334.102 11.5566 338.69L59.8235 366.556C67.769 371.144 72.6636 379.621 72.6636 388.796L72.6636 444.53C72.6636 453.705 67.769 462.182 59.8235 466.77L11.5566 494.637Z"/>
</clipPath><clipPath id="bgblur_1_8711_943_clip_path" transform="translate(-0.579247 -156.824)"><path d="M105.29 334.135C97.3443 338.722 87.555 338.722 79.6095 334.135L31.3427 306.268C23.3972 301.681 18.5026 293.203 18.5026 284.028L18.5026 228.295C18.5026 219.12 23.3972 210.642 31.3427 206.055L79.6096 178.188C87.555 173.601 97.3443 173.601 105.29 178.188L153.557 206.055C161.502 210.642 166.397 219.12 166.397 228.295L166.397 284.028C166.397 293.203 161.502 301.681 153.557 306.268L105.29 334.135Z"/>
</clipPath><clipPath id="bgblur_2_8711_943_clip_path" transform="translate(91.87 13.9506)"><path d="M12.8406 163.36C4.89507 167.948 -4.89418 167.948 -12.8397 163.36L-61.1065 135.494C-69.052 130.906 -73.9467 122.428 -73.9467 113.254L-73.9466 57.52C-73.9466 48.3453 -69.052 39.8676 -61.1065 35.2803L-12.8397 7.41338C-4.89417 2.82604 4.89508 2.82604 12.8406 7.41339L61.1074 35.2803C69.0529 39.8676 73.9476 48.3454 73.9476 57.52L73.9476 113.254C73.9476 122.428 69.0529 130.906 61.1074 135.494L12.8406 163.36Z"/>
</clipPath><clipPath id="bgblur_3_8711_943_clip_path" transform="translate(-91.7428 13.9506)"><path d="M196.453 163.36C188.508 167.948 178.719 167.948 170.773 163.36L122.506 135.494C114.561 130.906 109.666 122.428 109.666 113.254L109.666 57.52C109.666 48.3453 114.561 39.8676 122.506 35.2803L170.773 7.41338C178.719 2.82604 188.508 2.82604 196.453 7.41339L244.72 35.2803C252.666 39.8676 257.56 48.3454 257.56 57.52L257.56 113.254C257.56 122.428 252.666 130.906 244.72 135.494L196.453 163.36Z"/>
</clipPath></defs>
</svg>
