<svg width="166" height="23" viewBox="0 0 166 23" fill="none" xmlns="http://www.w3.org/2000/svg">
<g clip-path="url(#clip0_8711_1067)">
<path d="M36.1754 22.9409L29.2241 17.9095V6.23835L36.1754 0V22.9409Z" fill="#5B9D07"/>
<g style="mix-blend-mode:overlay">
<path d="M36.1754 22.9409L29.2241 17.9095V6.23835L36.1754 0V22.9409Z" fill="url(#paint0_linear_8711_1067)"/>
<path d="M36.1754 22.9409L29.2241 17.9095V6.23835L36.1754 0V22.9409Z" fill="black" fill-opacity="0.2"/>
</g>
<g opacity="0.47">
<path d="M36.1754 22.9412L29.2241 17.9098V14.7314L36.1754 22.9412Z" fill="url(#paint1_linear_8711_1067)"/>
</g>
<g opacity="0.47">
<path d="M36.1754 0L29.2241 8.18397V6.14441L36.1754 0Z" fill="url(#paint2_linear_8711_1067)"/>
</g>
<path d="M13.3723 11.0664L0 22.9409H6.68616C8.25427 22.8897 9.74979 22.2744 10.8928 21.2101L17.9662 15.0554L25.6075 21.6554C26.8047 22.5661 28.2847 23.0356 29.7934 22.9833L36.2157 22.9434L22.5185 11.0664L24.4314 9.49779C23.4121 9.62598 22.377 9.54019 21.3934 9.24598C20.4097 8.95178 19.4997 8.45576 18.7225 7.79022L11.8259 1.77062C11.3464 1.24199 10.7654 0.813181 10.1168 0.509187C9.46817 0.205192 8.76494 0.0320988 8.04808 0L0.853801 0L13.3723 11.0664Z" fill="white"/>
<path d="M25.4036 8.61247C24.1838 9.05044 22.8569 9.10373 21.6053 8.76504C20.3537 8.42634 19.2386 7.71228 18.4133 6.7209L24.2925 1.57374C25.1481 0.638497 26.3405 0.073359 27.6128 0L35.2801 0L25.4036 8.61247Z" fill="url(#paint3_linear_8711_1067)"/>
<path d="M25.4036 8.61247C24.1838 9.05044 22.8569 9.10373 21.6053 8.76504C20.3537 8.42634 19.2386 7.71228 18.4133 6.7209L24.2925 1.57374C25.1481 0.638497 26.3405 0.073359 27.6128 0L35.2801 0L25.4036 8.61247Z" fill="white"/>
<path d="M50.8123 9.89955H59.6895V11.6573H50.8123V15.1741H61.4686V16.9318H49.041V4.625H61.4686V6.38404H50.8123V9.89955Z" fill="#5B9D07"/>
<path d="M74.0948 4.625C75.9947 4.625 77.5932 6.18973 77.6465 8.14179H75.87C75.8686 7.67603 75.6811 7.22972 75.3485 6.90037C75.0159 6.57102 74.5652 6.3854 74.0948 6.38404H68.7667C68.2963 6.3854 67.8456 6.57102 67.5129 6.90037C67.1803 7.22972 66.9929 7.67603 66.9915 8.14179V13.4176C66.9929 13.8834 67.1803 14.3297 67.5129 14.659C67.8456 14.9884 68.2963 15.174 68.7667 15.1754H74.0948C74.5652 15.174 75.0159 14.9884 75.3485 14.659C75.6811 14.3297 75.8686 13.8834 75.87 13.4176H77.6465C77.6376 14.3475 77.2606 15.2368 76.5964 15.8943C75.9322 16.5517 75.0339 16.9247 74.0948 16.9331H68.7667C67.8258 16.9308 66.9241 16.5596 66.2588 15.9008C65.5935 15.2421 65.2187 14.3493 65.2163 13.4176V8.14179C65.2163 6.24249 66.7758 4.67776 68.7667 4.625H74.0948Z" fill="#5B9D07"/>
<path d="M93.8274 13.4159C93.8246 14.3477 93.4495 15.2405 92.784 15.8992C92.1185 16.5579 91.2167 16.929 90.2757 16.9314H84.9476C84.4809 16.933 84.0186 16.8431 83.5871 16.6669C83.1557 16.4908 82.7637 16.2319 82.4337 15.9052C82.1037 15.5784 81.8422 15.1903 81.6643 14.7631C81.4865 14.3358 81.3957 13.878 81.3972 13.4159V8.14008C81.4 7.20843 81.7749 6.31569 82.4401 5.65679C83.1053 4.99789 84.0067 4.62635 84.9476 4.62329H90.2757C92.1588 4.62329 93.8274 6.22406 93.8274 8.14008V13.4159ZM92.0522 8.14008C92.0505 7.6742 91.8627 7.2279 91.5299 6.89859C91.1971 6.56927 90.7462 6.38369 90.2757 6.38233H84.9476C84.4768 6.38335 84.0255 6.56901 83.6926 6.89867C83.3596 7.22833 83.1721 7.67516 83.1711 8.14137V13.4172C83.1725 13.883 83.36 14.3293 83.6926 14.6586C84.0252 14.988 84.4759 15.1736 84.9463 15.175H90.2744C90.7449 15.1736 91.1958 14.988 91.5286 14.6587C91.8614 14.3294 92.0492 13.8831 92.0509 13.4172L92.0522 8.14008Z" fill="#5B9D07"/>
<path d="M106.624 4.625C108.524 4.625 110.122 6.18973 110.176 8.14179H108.4C108.399 7.67591 108.211 7.22961 107.878 6.90029C107.545 6.57098 107.094 6.3854 106.624 6.38404H101.296C100.825 6.3854 100.375 6.57102 100.042 6.90037C99.7094 7.22972 99.5219 7.67603 99.5205 8.14179V13.4176C99.5219 13.8834 99.7094 14.3297 100.042 14.659C100.375 14.9884 100.825 15.174 101.296 15.1754H106.624C107.094 15.174 107.545 14.9884 107.878 14.6591C108.211 14.3298 108.399 13.8835 108.4 13.4176H110.176C110.167 14.3475 109.79 15.2368 109.125 15.8943C108.461 16.5517 107.563 16.9247 106.624 16.9331H101.296C100.355 16.9304 99.4535 16.5592 98.7883 15.9005C98.123 15.2418 97.7481 14.3492 97.7454 13.4176V8.14179C97.7454 6.24249 99.3048 4.67776 101.296 4.625H106.624Z" fill="white"/>
<path d="M115.875 9.89912H124.756V4.62329H126.533V16.9301H124.756V11.6543H115.875V16.9301H114.1V4.62458H115.875V9.89912Z" fill="white"/>
<path d="M143.237 16.9318H141.461V13.4163H132.584V16.9318H130.808V8.14179C130.817 7.2119 131.194 6.32245 131.858 5.66477C132.521 5.00709 133.42 4.63373 134.359 4.625H139.687C141.587 4.625 143.185 6.18973 143.238 8.14179L143.237 16.9318ZM134.359 6.38018C133.888 6.38154 133.438 6.56716 133.105 6.89651C132.772 7.22586 132.585 7.67216 132.584 8.13793V11.6573H141.461V8.14179C141.459 7.67603 141.272 7.22972 140.939 6.90037C140.607 6.57102 140.156 6.3854 139.686 6.38404L134.359 6.38018Z" fill="white"/>
<path d="M147.517 4.625H149.292V16.9318H147.517V4.625Z" fill="white"/>
<path d="M166 16.9318H164.225L155.346 7.47395V16.9318H153.571V4.625H155.346L164.225 13.9439V4.625H166V16.9318Z" fill="white"/>
</g>
<defs>
<linearGradient id="paint0_linear_8711_1067" x1="32.7004" y1="22.9409" x2="32.7004" y2="0" gradientUnits="userSpaceOnUse">
<stop stop-color="#161C20"/>
<stop offset="0.33" stop-color="#B2B7BF"/>
<stop offset="0.58" stop-color="#939AA4"/>
<stop offset="0.75" stop-color="#F9F9FB"/>
<stop offset="0.97" stop-color="#D4D5D9"/>
</linearGradient>
<linearGradient id="paint1_linear_8711_1067" x1="32.7004" y1="22.9412" x2="32.7004" y2="14.7314" gradientUnits="userSpaceOnUse">
<stop stop-color="#161C20"/>
<stop offset="0.24" stop-color="#1F2529"/>
<stop offset="1" stop-color="#171D21"/>
</linearGradient>
<linearGradient id="paint2_linear_8711_1067" x1="32.7004" y1="8.18397" x2="32.7004" y2="0" gradientUnits="userSpaceOnUse">
<stop stop-color="#161C20"/>
<stop offset="0.24" stop-color="#1F2529"/>
<stop offset="1" stop-color="#171D21"/>
</linearGradient>
<linearGradient id="paint3_linear_8711_1067" x1="26.8474" y1="8.98307" x2="26.8474" y2="0" gradientUnits="userSpaceOnUse">
<stop stop-color="#161C20"/>
<stop offset="0.09" stop-color="#20262A"/>
<stop offset="0.33" stop-color="#B2B7BF"/>
<stop offset="0.58" stop-color="#81868C"/>
<stop offset="0.75" stop-color="#F9F9FB"/>
<stop offset="0.97" stop-color="#D4D5D9"/>
</linearGradient>
<clipPath id="clip0_8711_1067">
<rect width="166" height="22.9846" fill="white"/>
</clipPath>
</defs>
</svg>
