<svg width="32" height="32" viewBox="0 0 32 32" xmlns="http://www.w3.org/2000/svg">
  <path d="M16 0C7.163 0 0 7.163 0 16s7.163 16 16 16 16-7.163 16-16S24.837 0 16 0z" fill="#F6851B"/>
  <path d="M16.5 4c-1.5 0-3 .5-4 1.5-1 1-1.5 2.5-1.5 4v2c0 1.5.5 3 1.5 4 1 1 2.5 1.5 4 1.5s3-.5 4-1.5c1-1 1.5-2.5 1.5-4v-2c0-1.5-.5-3-1.5-4-1-1-2.5-1.5-4-1.5z" fill="#fff"/>
  <circle cx="12.5" cy="12.5" r="2" fill="#F6851B"/>
  <circle cx="19.5" cy="12.5" r="2" fill="#F6851B"/>
  <path d="M10.5 20c1 1 2 1.5 3 1.5s2-.5 3-1.5" stroke="#F6851B" stroke-width="1.5" fill="none" stroke-linecap="round"/>
  <path d="M8 8c2-1 4-1.5 8-1.5s6 .5 8 1.5" stroke="#F6851B" stroke-width="1" fill="none" opacity="0.6"/>
</svg>