<svg width="32" height="32" viewBox="0 0 32 32" xmlns="http://www.w3.org/2000/svg">
  <path d="M16 4c-6.6 0-12 5.4-12 12s5.4 12 12 12 12-5.4 12-12-5.4-12-12-12z" fill="#AB9FF2"/>
  <path d="M16 6c-5.5 0-10 4.5-10 10s4.5 10 10 10 10-4.5 10-10-4.5-10-10-10z" fill="#fff"/>
  <circle cx="12" cy="14" r="2" fill="#AB9FF2"/>
  <circle cx="20" cy="14" r="2" fill="#AB9FF2"/>
  <path d="M10 20c1 1 2 1.5 3 1.5s2-.5 3-1.5" stroke="#AB9FF2" stroke-width="1.5" fill="none" stroke-linecap="round"/>
  <path d="M8 8c2-1 4-1.5 8-1.5s6 .5 8 1.5" stroke="#AB9FF2" stroke-width="1" fill="none" opacity="0.4"/>
  <path d="M6 12c1-1 2-1.5 4-1.5s3 .5 4 1.5" stroke="#AB9FF2" stroke-width="1" fill="none" opacity="0.3"/>
</svg>