<svg width="198" height="28" viewBox="0 0 198 28" fill="none" xmlns="http://www.w3.org/2000/svg">
<path d="M43.1489 27.3632L34.8577 21.362V7.44097L43.1489 4.57764e-05V27.3632Z" fill="#5B9D07"/>
<g style="mix-blend-mode:overlay">
<path d="M43.1489 27.3632L34.8577 21.362V7.44097L43.1489 4.57764e-05V27.3632Z" fill="url(#paint0_linear_6419_4175)"/>
<path d="M43.1489 27.3632L34.8577 21.362V7.44097L43.1489 4.57764e-05V27.3632Z" fill="black" fill-opacity="0.2"/>
</g>
<g opacity="0.47">
<path d="M43.1489 27.3632L34.8577 21.362V17.5709L43.1489 27.3632Z" fill="url(#paint1_linear_6419_4175)"/>
</g>
<g opacity="0.47">
<path d="M43.1489 4.57764e-05L34.8577 9.76165V7.32893L43.1489 4.57764e-05Z" fill="url(#paint2_linear_6419_4175)"/>
</g>
<path d="M15.9501 13.1997L0 27.3632H7.97506C9.84545 27.3022 11.6293 26.5682 12.9926 25.2988L21.4296 17.9577L30.5439 25.8299C31.9718 26.9161 33.7371 27.4762 35.5367 27.4139L43.1971 27.3663L26.8594 13.1997L29.1411 11.3287C27.9253 11.4816 26.6906 11.3793 25.5174 11.0283C24.3441 10.6774 23.2587 10.0858 22.3317 9.29195L14.1055 2.11195C13.5336 1.48141 12.8406 0.969939 12.067 0.607343C11.2934 0.244747 10.4546 0.0382865 9.59952 0L1.01839 0L15.9501 13.1997Z" fill="#406050"/>
<path d="M30.3007 10.2728C28.8457 10.7951 27.2631 10.8587 25.7702 10.4547C24.2773 10.0507 22.9473 9.19903 21.9629 8.01654L28.9754 1.87716C29.996 0.761626 31.4182 0.0875462 32.9358 4.57764e-05L42.0811 4.57764e-05L30.3007 10.2728Z" fill="url(#paint3_linear_6419_4175)"/>
<path d="M30.3007 10.2728C28.8457 10.7951 27.2631 10.8587 25.7702 10.4547C24.2773 10.0507 22.9473 9.19903 21.9629 8.01654L28.9754 1.87716C29.996 0.761626 31.4182 0.0875462 32.9358 4.57764e-05L42.0811 4.57764e-05L30.3007 10.2728Z" fill="#406050"/>
<path d="M60.6074 11.8075H71.1958V13.9041H60.6074V18.0989H73.3179V20.1954H58.4946V5.5162H73.3179V7.61433H60.6074V11.8075Z" fill="#5B9D07"/>
<path d="M88.3781 5.5162C90.6443 5.5162 92.5509 7.38257 92.6144 9.71093H90.4955C90.4938 9.15538 90.2702 8.62304 89.8735 8.2302C89.4768 7.83736 88.9392 7.61595 88.3781 7.61433H82.0228C81.4618 7.61595 80.9242 7.83736 80.5274 8.2302C80.1307 8.62304 79.9071 9.15538 79.9055 9.71093V16.0038C79.9071 16.5593 80.1307 17.0917 80.5274 17.4845C80.9242 17.8774 81.4618 18.0988 82.0228 18.1004H88.3781C88.9392 18.0988 89.4768 17.8774 89.8735 17.4845C90.2702 17.0917 90.4938 16.5593 90.4955 16.0038H92.6144C92.6039 17.1129 92.1541 18.1737 91.3619 18.9579C90.5697 19.742 89.4982 20.187 88.3781 20.197H82.0228C80.9006 20.1941 79.8251 19.7515 79.0316 18.9657C78.238 18.1799 77.791 17.115 77.7881 16.0038V9.71093C77.7881 7.4455 79.6482 5.57913 82.0228 5.5162H88.3781Z" fill="#5B9D07"/>
<path d="M111.914 16.0023C111.911 17.1136 111.464 18.1785 110.67 18.9643C109.876 19.75 108.801 20.1926 107.678 20.1955H101.323C100.766 20.1973 100.215 20.0901 99.7002 19.88C99.1856 19.6699 98.718 19.3611 98.3244 18.9714C97.9308 18.5816 97.6189 18.1187 97.4068 17.6091C97.1946 17.0995 97.0863 16.5534 97.0882 16.0023V9.7094C97.0914 8.59815 97.5386 7.53332 98.332 6.7474C99.1254 5.96148 100.201 5.51832 101.323 5.51468H107.678C109.924 5.51468 111.914 7.42402 111.914 9.7094V16.0023ZM109.797 9.7094C109.795 9.15371 109.571 8.62137 109.174 8.22858C108.777 7.83579 108.239 7.61442 107.678 7.61281H101.323C100.761 7.61402 100.223 7.83547 99.826 8.22868C99.4289 8.62189 99.2052 9.15485 99.204 9.71094V16.0038C99.2056 16.5594 99.4292 17.0917 99.826 17.4845C100.223 17.8774 100.76 18.0988 101.321 18.1004H107.677C108.238 18.0988 108.776 17.8774 109.173 17.4846C109.57 17.0918 109.794 16.5595 109.796 16.0038L109.797 9.7094Z" fill="#5B9D07"/>
<path d="M127.178 5.5162C129.444 5.5162 131.351 7.38257 131.414 9.71093H129.297C129.295 9.15524 129.071 8.6229 128.674 8.23011C128.277 7.83731 127.739 7.61595 127.178 7.61433H120.823C120.262 7.61595 119.724 7.83736 119.327 8.2302C118.931 8.62304 118.707 9.15538 118.705 9.71093V16.0038C118.707 16.5593 118.931 17.0917 119.327 17.4845C119.724 17.8774 120.262 18.0988 120.823 18.1004H127.178C127.739 18.0988 128.277 17.8774 128.674 17.4846C129.071 17.0918 129.295 16.5595 129.297 16.0038H131.414C131.404 17.1129 130.954 18.1737 130.162 18.9579C129.369 19.742 128.298 20.187 127.178 20.197H120.823C119.701 20.1937 118.625 19.7509 117.832 18.9652C117.038 18.1796 116.591 17.1149 116.588 16.0038V9.71093C116.588 7.4455 118.448 5.57913 120.823 5.5162H127.178Z" fill="#406050"/>
<path d="M138.213 11.8075H148.806V5.51468H150.925V20.1939H148.806V13.9011H138.213V20.1939H136.095V5.51621H138.213V11.8075Z" fill="#406050"/>
<path d="M170.849 20.1954H168.73V16.0023H158.142V20.1954H156.024V9.71093C156.035 8.60178 156.484 7.54087 157.276 6.75641C158.068 5.97195 159.139 5.52661 160.259 5.5162H166.614C168.881 5.5162 170.787 7.38257 170.851 9.71093L170.849 20.1954ZM160.259 7.60973C159.698 7.61135 159.16 7.83276 158.764 8.2256C158.367 8.61843 158.143 9.15077 158.142 9.70633V13.9041H168.73V9.71093C168.729 9.15538 168.505 8.62304 168.108 8.2302C167.712 7.83736 167.174 7.61595 166.613 7.61433L160.259 7.60973Z" fill="#406050"/>
<path d="M175.954 5.5162H178.071V20.1954H175.954V5.5162Z" fill="#406050"/>
<path d="M198 20.1954H195.882L185.292 8.91435V20.1954H183.175V5.5162H185.292L195.882 16.6315V5.5162H198V20.1954Z" fill="#406050"/>
<defs>
<linearGradient id="paint0_linear_6419_4175" x1="39.0041" y1="27.3632" x2="39.0041" y2="4.57764e-05" gradientUnits="userSpaceOnUse">
<stop stop-color="#161C20"/>
<stop offset="0.33" stop-color="#B2B7BF"/>
<stop offset="0.58" stop-color="#939AA4"/>
<stop offset="0.75" stop-color="#F9F9FB"/>
<stop offset="0.97" stop-color="#D4D5D9"/>
</linearGradient>
<linearGradient id="paint1_linear_6419_4175" x1="39.0041" y1="27.3632" x2="39.0041" y2="17.5709" gradientUnits="userSpaceOnUse">
<stop stop-color="#161C20"/>
<stop offset="0.24" stop-color="#1F2529"/>
<stop offset="1" stop-color="#171D21"/>
</linearGradient>
<linearGradient id="paint2_linear_6419_4175" x1="39.0041" y1="9.76165" x2="39.0041" y2="4.57764e-05" gradientUnits="userSpaceOnUse">
<stop stop-color="#161C20"/>
<stop offset="0.24" stop-color="#1F2529"/>
<stop offset="1" stop-color="#171D21"/>
</linearGradient>
<linearGradient id="paint3_linear_6419_4175" x1="32.0228" y1="10.7148" x2="32.0228" y2="4.57764e-05" gradientUnits="userSpaceOnUse">
<stop stop-color="#161C20"/>
<stop offset="0.09" stop-color="#20262A"/>
<stop offset="0.33" stop-color="#B2B7BF"/>
<stop offset="0.58" stop-color="#81868C"/>
<stop offset="0.75" stop-color="#F9F9FB"/>
<stop offset="0.97" stop-color="#D4D5D9"/>
</linearGradient>
</defs>
</svg>
