<svg width="32" height="32" viewBox="0 0 32 32" xmlns="http://www.w3.org/2000/svg">
  <circle cx="16" cy="16" r="1" fill="#3396FF"/>
  <circle cx="8" cy="16" r="1" fill="#3396FF"/>
  <circle cx="24" cy="16" r="1" fill="#3396FF"/>
  <circle cx="12" cy="12" r="1" fill="#3396FF"/>
  <circle cx="20" cy="12" r="1" fill="#3396FF"/>
  <circle cx="12" cy="20" r="1" fill="#3396FF"/>
  <circle cx="20" cy="20" r="1" fill="#3396FF"/>
  <path d="M8 16c0-2.2 1.8-4 4-4s4 1.8 4 4-1.8 4-4 4-4-1.8-4-4z" fill="none" stroke="#3396FF" stroke-width="1.5"/>
  <path d="M16 8c0-2.2 1.8-4 4-4s4 1.8 4 4-1.8 4-4 4-4-1.8-4-4z" fill="none" stroke="#3396FF" stroke-width="1.5"/>
  <path d="M16 24c0-2.2 1.8-4 4-4s4 1.8 4 4-1.8 4-4 4-4-1.8-4-4z" fill="none" stroke="#3396FF" stroke-width="1.5"/>
  <path d="M8 16c2.2 0 4 1.8 4 4s-1.8 4-4 4-4-1.8-4-4 1.8-4 4-4z" fill="none" stroke="#3396FF" stroke-width="1.5"/>
  <path d="M24 16c2.2 0 4 1.8 4 4s-1.8 4-4 4-4-1.8-4-4 1.8-4 4-4z" fill="none" stroke="#3396FF" stroke-width="1.5"/>
</svg>