<svg width="1020" height="771" viewBox="0 0 1020 771" fill="none" xmlns="http://www.w3.org/2000/svg">
<g style="mix-blend-mode:soft-light">
<path d="M376.63 371.256L0 769.511H188.315C232.472 767.774 274.584 747.141 306.785 711.466L505.993 504.911L721.216 726.32C754.93 756.881 796.621 772.633 839.119 770.866L1020 769.511L634.208 371.256L688.01 318.661C659.29 322.939 630.128 320.04 602.42 310.155C574.712 300.27 549.078 283.619 527.184 261.285L333.126 59.4004C319.614 41.6604 303.241 27.2714 284.964 17.0729C266.686 6.87435 246.87 1.07051 226.67 0L24.0428 0L376.63 371.256Z" fill="#161C20"/>
<path d="M715.485 288.905C681.124 303.569 643.759 305.343 608.509 293.984C573.26 282.625 541.852 258.69 518.589 225.457L684.199 52.5949C708.325 21.3167 741.885 2.43493 777.68 0L993.673 0L715.485 288.905Z" fill="#161C20"/>
</g>
</svg>
