<svg width="984" height="1181" viewBox="0 0 984 1181" fill="none" xmlns="http://www.w3.org/2000/svg">
<g style="mix-blend-mode:soft-light" opacity="0.55">
<path d="M-580.236 1178.69L-279.623 919.69V318.796L-580.236 -2.35724V1178.69Z" fill="white"/>
<path d="M405.763 567.446L984 1178.69H694.881C627.086 1176.02 562.433 1144.35 512.994 1089.6L207.152 772.58L-123.278 1112.4C-175.04 1159.3 -239.048 1183.48 -304.294 1180.77L-582 1178.69L10.305 567.446L-72.2974 486.724C-28.2036 493.288 16.5685 488.84 59.1086 473.668C101.649 458.497 141.004 432.941 174.617 398.663L472.554 88.8104C493.299 61.5831 518.435 39.4989 546.497 23.8462C574.558 8.1935 604.983 -0.71422 635.995 -2.35724L947.087 -2.35724L405.763 567.446Z" fill="white"/>
<path d="M-114.48 441.054C-61.726 463.56 -4.35901 466.283 49.7591 448.849C103.877 431.416 152.098 394.679 187.814 343.674L-66.4462 78.3653C-103.487 30.3596 -155.012 1.37988 -209.968 -2.35724L-541.581 -2.35724L-114.48 441.054Z" fill="white"/>
</g>
</svg>
