<svg width="247" height="206" viewBox="0 0 247 206" fill="none" xmlns="http://www.w3.org/2000/svg">
<path d="M246.046 156.032L198.767 121.812V42.4304L246.046 0.000335693V156.032Z" fill="#5B9D07"/>
<g style="mix-blend-mode:overlay">
<path d="M246.046 156.032L198.767 121.812V42.4304L246.046 0.000335693V156.032Z" fill="url(#paint0_linear_6418_4082)"/>
<path d="M246.046 156.032L198.767 121.812V42.4304L246.046 0.000335693V156.032Z" fill="black" fill-opacity="0.2"/>
</g>
<g opacity="0.47">
<path d="M246.046 156.032L198.767 121.811V100.194L246.046 156.032Z" fill="url(#paint1_linear_6418_4082)"/>
</g>
<g opacity="0.47">
<path d="M246.046 0.000335693L198.767 55.6635V41.7915L246.046 0.000335693Z" fill="url(#paint2_linear_6418_4082)"/>
</g>
<path d="M90.9517 75.2679L0 156.032H45.4758C56.1413 155.684 66.3131 151.499 74.0872 144.261L122.197 102.399L174.169 147.289C182.312 153.483 192.378 156.676 202.639 156.321L246.321 156.05L153.159 75.2679L166.17 64.5991C159.237 65.471 152.197 64.8875 145.507 62.8865C138.817 60.8854 132.627 57.5118 127.341 52.9851L80.4335 12.0429C77.1721 8.44742 73.2206 5.53086 68.8091 3.46324C64.3977 1.39563 59.6146 0.218335 54.7389 1.52588e-05L5.80712 1.52588e-05L90.9517 75.2679Z" fill="#406050"/>
<path d="M172.782 58.578C164.485 61.5568 155.461 61.9193 146.948 59.6156C138.435 57.312 130.851 52.4553 125.238 45.7124L165.224 10.7041C171.044 4.34307 179.154 0.499286 187.808 0.000335693L239.957 0.000335693L172.782 58.578Z" fill="url(#paint3_linear_6418_4082)"/>
<path d="M172.782 58.578C164.485 61.5568 155.461 61.9193 146.948 59.6156C138.435 57.312 130.851 52.4553 125.238 45.7124L165.224 10.7041C171.044 4.34307 179.154 0.499286 187.808 0.000335693L239.957 0.000335693L172.782 58.578Z" fill="#406050"/>
<path d="M3.74546 191.16H22.4751V194.869H3.74546V202.289H26.2288V205.997H0.00830078V180.032H26.2288V183.743H3.74546V191.16Z" fill="#5B9D07"/>
<path d="M52.8686 180.032C56.8772 180.032 60.2497 183.333 60.3622 187.451H56.614C56.6111 186.469 56.2156 185.527 55.5138 184.832C54.8121 184.137 53.8611 183.746 52.8686 183.743H41.627C40.6345 183.746 39.6836 184.137 38.9818 184.832C38.28 185.527 37.8845 186.469 37.8816 187.451V198.583C37.8845 199.565 38.28 200.507 38.9818 201.202C39.6836 201.897 40.6345 202.289 41.627 202.291H52.8686C53.8611 202.289 54.8121 201.897 55.5138 201.202C56.2156 200.507 56.6111 199.565 56.614 198.583H60.3622C60.3436 200.545 59.548 202.421 58.1466 203.808C56.7453 205.195 54.85 205.982 52.8686 206H41.627C39.6419 205.995 37.7395 205.212 36.3358 203.822C34.9321 202.432 34.1413 200.548 34.1362 198.583V187.451C34.1362 183.444 37.4265 180.143 41.627 180.032H52.8686Z" fill="#5B9D07"/>
<path d="M94.5014 198.58C94.4956 200.546 93.7041 202.43 92.3 203.819C90.8959 205.209 88.9932 205.992 87.0079 205.997H75.7662C74.7816 206.001 73.8061 205.811 72.8958 205.439C71.9855 205.068 71.1584 204.521 70.4622 203.832C69.7659 203.143 69.2143 202.324 68.839 201.422C68.4637 200.521 68.2722 199.555 68.2754 198.58V187.449C68.2812 185.483 69.0722 183.6 70.4757 182.209C71.8791 180.819 73.7811 180.035 75.7662 180.029H87.0079C90.9808 180.029 94.5014 183.406 94.5014 187.449V198.58ZM90.756 187.449C90.7524 186.466 90.3562 185.524 89.654 184.829C88.9518 184.135 88.0006 183.743 87.0079 183.74H75.7662C74.7728 183.742 73.8207 184.134 73.1183 184.83C72.4159 185.525 72.0203 186.468 72.0181 187.451V198.583C72.021 199.565 72.4165 200.507 73.1183 201.202C73.82 201.897 74.771 202.289 75.7635 202.291H87.0051C87.9978 202.289 88.9491 201.897 89.6513 201.202C90.3535 200.507 90.7496 199.566 90.7533 198.583L90.756 187.449Z" fill="#5B9D07"/>
<path d="M121.5 180.032C125.509 180.032 128.882 183.333 128.994 187.451H125.249C125.245 186.469 124.849 185.527 124.147 184.832C123.444 184.137 122.493 183.746 121.5 183.743H110.259C109.266 183.746 108.315 184.137 107.614 184.832C106.912 185.527 106.516 186.469 106.513 187.451V198.583C106.516 199.565 106.912 200.507 107.614 201.202C108.315 201.897 109.266 202.289 110.259 202.291H121.5C122.493 202.289 123.444 201.897 124.147 201.202C124.849 200.507 125.245 199.566 125.249 198.583H128.994C128.975 200.545 128.18 202.421 126.778 203.808C125.377 205.195 123.482 205.982 121.5 206H110.259C108.274 205.994 106.372 205.211 104.968 203.821C103.565 202.431 102.774 200.548 102.768 198.583V187.451C102.768 183.444 106.058 180.143 110.259 180.032H121.5Z" fill="#406050"/>
<path d="M141.02 191.16H159.758V180.029H163.506V205.995H159.758V194.863H141.02V205.995H137.274V180.032H141.02V191.16Z" fill="#406050"/>
<path d="M198.75 205.997H195.001V198.58H176.272V205.997H172.526V187.451C172.544 185.49 173.339 183.613 174.74 182.225C176.141 180.838 178.036 180.05 180.017 180.032H191.259C195.267 180.032 198.64 183.333 198.752 187.451L198.75 205.997ZM180.017 183.735C179.025 183.738 178.074 184.129 177.372 184.824C176.67 185.519 176.275 186.461 176.272 187.443V194.869H195.001V187.451C194.999 186.469 194.603 185.527 193.901 184.832C193.199 184.137 192.248 183.746 191.256 183.743L180.017 183.735Z" fill="#406050"/>
<path d="M207.779 180.032H211.524V205.997H207.779V180.032Z" fill="#406050"/>
<path d="M246.776 205.997H243.031L224.298 186.042V205.997H220.553V180.032H224.298L243.031 199.693V180.032H246.776V205.997Z" fill="#406050"/>
<defs>
<linearGradient id="paint0_linear_6418_4082" x1="222.411" y1="156.032" x2="222.411" y2="0.000335693" gradientUnits="userSpaceOnUse">
<stop stop-color="#161C20"/>
<stop offset="0.33" stop-color="#B2B7BF"/>
<stop offset="0.58" stop-color="#939AA4"/>
<stop offset="0.75" stop-color="#F9F9FB"/>
<stop offset="0.97" stop-color="#D4D5D9"/>
</linearGradient>
<linearGradient id="paint1_linear_6418_4082" x1="222.411" y1="156.032" x2="222.411" y2="100.194" gradientUnits="userSpaceOnUse">
<stop stop-color="#161C20"/>
<stop offset="0.24" stop-color="#1F2529"/>
<stop offset="1" stop-color="#171D21"/>
</linearGradient>
<linearGradient id="paint2_linear_6418_4082" x1="222.411" y1="55.6635" x2="222.411" y2="0.000335693" gradientUnits="userSpaceOnUse">
<stop stop-color="#161C20"/>
<stop offset="0.24" stop-color="#1F2529"/>
<stop offset="1" stop-color="#171D21"/>
</linearGradient>
<linearGradient id="paint3_linear_6418_4082" x1="182.602" y1="61.0986" x2="182.602" y2="0.000335693" gradientUnits="userSpaceOnUse">
<stop stop-color="#161C20"/>
<stop offset="0.09" stop-color="#20262A"/>
<stop offset="0.33" stop-color="#B2B7BF"/>
<stop offset="0.58" stop-color="#81868C"/>
<stop offset="0.75" stop-color="#F9F9FB"/>
<stop offset="0.97" stop-color="#D4D5D9"/>
</linearGradient>
</defs>
</svg>
